<svg width="40" height="40" viewBox="0 0 40 40" fill="none" xmlns="http://www.w3.org/2000/svg">
<mask id="mask0_50_15021" style="mask-type:luminance" maskUnits="userSpaceOnUse" x="1" y="1" width="38" height="38">
<path d="M20.0002 36.6668C22.1893 36.6697 24.3574 36.2399 26.3798 35.4021C28.4023 34.5643 30.2393 33.3352 31.7852 31.7852C33.3352 30.2393 34.5643 28.4023 35.4021 26.3798C36.2399 24.3574 36.6697 22.1893 36.6668 20.0002C36.6696 17.8111 36.2398 15.643 35.402 13.6205C34.5643 11.5981 33.3351 9.7611 31.7852 8.21518C30.2393 6.6652 28.4023 5.43601 26.3798 4.59825C24.3574 3.76049 22.1893 3.33067 20.0002 3.33351C17.8111 3.33072 15.643 3.76055 13.6205 4.59831C11.5981 5.43607 9.7611 6.66524 8.21518 8.21518C6.66524 9.7611 5.43607 11.5981 4.59831 13.6205C3.76055 15.643 3.33072 17.8111 3.33351 20.0002C3.33067 22.1893 3.76049 24.3574 4.59825 26.3798C5.43601 28.4023 6.6652 30.2393 8.21518 31.7852C9.7611 33.3351 11.5981 34.5643 13.6205 35.402C15.643 36.2398 17.8111 36.6696 20.0002 36.6668Z" fill="white" stroke="white" stroke-width="3.33333" stroke-linejoin="round"/>
<path fill-rule="evenodd" clip-rule="evenodd" d="M20.0003 30.8337C20.5529 30.8337 21.0828 30.6142 21.4735 30.2235C21.8642 29.8328 22.0837 29.3029 22.0837 28.7503C22.0837 28.1978 21.8642 27.6679 21.4735 27.2772C21.0828 26.8865 20.5529 26.667 20.0003 26.667C19.4478 26.667 18.9179 26.8865 18.5272 27.2772C18.1365 27.6679 17.917 28.1978 17.917 28.7503C17.917 29.3029 18.1365 29.8328 18.5272 30.2235C18.9179 30.6142 19.4478 30.8337 20.0003 30.8337Z" fill="black"/>
<path d="M20 10V23.3333" stroke="black" stroke-width="3.33333" stroke-linecap="round" stroke-linejoin="round"/>
</mask>
<g mask="url(#mask0_50_15021)">
<path d="M0 0H40V40H0V0Z" fill="#C03838"/>
</g>
</svg>
