<svg width="19" height="20" viewBox="0 0 19 20" fill="none" xmlns="http://www.w3.org/2000/svg">
<path d="M8.3125 7.62498C8.3125 4.80466 10.7629 2.59473 13.5832 2.90348C16.0449 3.16651 17.901 5.42216 17.8089 8.03763C17.7312 10.247 16.951 11.0123 15.3959 12.5371C14.9257 12.9972 14.4738 13.8754 14.0737 15.0896C13.6717 16.3068 12.5442 17.125 11.267 17.125C9.63775 17.125 8.3125 15.7991 8.3125 14.1693V12.9687C8.3125 12.6404 8.57791 12.375 8.90625 12.375C9.23459 12.375 9.5 12.6404 9.5 12.9687V14.1693C9.5 15.1442 10.2927 15.9375 11.267 15.9375C12.0306 15.9375 12.7057 15.4476 12.9461 14.7173C13.4116 13.3042 13.9513 12.2901 14.5498 11.7034C16.058 10.2244 16.5615 9.73101 16.6226 7.99607C16.6927 5.99988 15.3021 4.28157 13.4567 4.08385C11.2646 3.85051 9.5 5.57119 9.5 7.62498C9.5 7.95332 9.23459 8.21873 8.90625 8.21873C8.57791 8.21873 8.3125 7.95332 8.3125 7.62498Z" fill="black"/>
<path d="M11.875 10.5937C11.875 10.266 11.609 10 11.2812 10C10.9529 10 10.6875 9.73459 10.6875 9.40625V7.625C10.6875 6.15428 12.005 5.03209 13.4882 5.28681C14.4477 5.45544 15.2338 6.24334 15.4013 7.20403C15.425 7.34772 15.4375 7.48784 15.4375 7.62559C15.4375 7.95394 15.1721 8.21934 14.8438 8.21934C14.5154 8.21934 14.25 7.95394 14.25 7.62559C14.25 7.55375 14.2435 7.48012 14.231 7.4059C14.1497 6.93862 13.7507 6.53903 13.2828 6.45709C12.5246 6.31994 11.875 6.903 11.875 7.625V8.91403C12.5661 9.15925 13.0625 9.8195 13.0625 10.5937C13.0625 11.368 12.5661 12.0282 11.875 12.2735V12.375C11.875 12.7033 11.6096 12.9687 11.2812 12.9687C10.9529 12.9687 10.6875 12.7033 10.6875 12.375V11.7812C10.6875 11.4529 10.9529 11.1875 11.2812 11.1875C11.609 11.1875 11.875 10.9215 11.875 10.5937Z" fill="black"/>
<path d="M0.59375 10.5938C0.59375 10.2655 0.859156 10.0001 1.1875 10.0001H1.97303L3.01091 7.40477C3.10472 7.17024 3.32441 7.01409 3.58922 7.0319C3.84156 7.04318 4.05888 7.21299 4.13131 7.45465L5.37344 11.5961L6.56213 8.03118C6.63813 7.80318 6.84356 7.64405 7.08284 7.62684C7.33222 7.60724 7.54894 7.73846 7.65641 7.9534L8.67944 10.0001H9.5C9.82834 10.0001 10.0938 10.2655 10.0938 10.5938C10.0938 10.9221 9.82834 11.1876 9.5 11.1876H8.3125C8.08747 11.1876 7.88203 11.0605 7.78109 10.8592L7.23484 9.76612L5.90662 13.7502C5.82587 13.993 5.59906 14.1563 5.34375 14.1563C5.34078 14.1563 5.33781 14.1563 5.33425 14.1563C5.07538 14.1521 4.84916 13.9811 4.77494 13.733L3.48234 9.42412L2.926 10.8141C2.83575 11.0397 2.61784 11.1876 2.375 11.1876H1.1875C0.859156 11.1876 0.59375 10.9221 0.59375 10.5938Z" fill="black"/>
</svg>
