<svg width="19" height="20" viewBox="0 0 19 20" fill="none" xmlns="http://www.w3.org/2000/svg">
<path d="M18.8787 4.80668C18.8383 4.54983 18.7207 4.31133 18.5417 4.12281C18.3626 3.9343 18.1304 3.80467 17.876 3.75113L14.7779 3.07029C14.4457 2.99784 14.1018 2.99756 13.7694 3.0695C13.4371 3.14143 13.1241 3.28389 12.8515 3.48724L3.69458 10.1583L1.12958 10.0528C0.923382 10.0454 0.720103 10.1032 0.548613 10.2179C0.377124 10.3326 0.246142 10.4985 0.174272 10.6919C0.102403 10.8853 0.0932994 11.0964 0.148255 11.2953C0.203211 11.4942 0.319432 11.6707 0.48041 11.7997L3.1193 13.8739C3.43597 14.2592 3.64708 14.1853 8.88791 11.33L9.37874 16.3017C9.38691 16.4373 9.4334 16.5678 9.51282 16.6781C9.59223 16.7883 9.7013 16.8738 9.82735 16.9245C9.91805 16.9603 10.0148 16.9782 10.1124 16.9772C10.3086 16.9712 10.4961 16.8944 10.6401 16.7608L11.9015 15.6103C12.0271 15.4939 12.1122 15.3404 12.1443 15.1722L13.3001 8.89168C15.1843 7.83613 16.9682 6.8439 18.2401 6.12085C18.4677 5.99284 18.6508 5.79843 18.7649 5.5636C18.879 5.32877 18.9187 5.0647 18.8787 4.80668ZM17.7176 5.20251C16.3982 5.95196 14.551 7.00224 12.5665 8.08946L12.3501 8.21085L11.1204 14.8978L10.3446 15.605L9.76402 9.64113L9.06208 10C5.27791 12.1111 4.01652 12.7233 3.58374 12.9133L1.3143 11.1136L3.99541 11.2297L13.4954 4.33696C13.6447 4.22532 13.8159 4.14646 13.9978 4.10553C14.1797 4.06461 14.3682 4.06254 14.551 4.09946L17.6385 4.76446C17.686 4.77309 17.7296 4.79668 17.7628 4.83181C17.7961 4.86693 17.8172 4.91176 17.8232 4.95974C17.8341 5.00617 17.8296 5.05488 17.8106 5.09861C17.7916 5.14235 17.759 5.17879 17.7176 5.20251Z" fill="black"/>
<path d="M3.69437 7.11839L5.57326 7.64616L6.43881 7.01811L4.3277 6.40589L5.2777 5.82533L8.16465 5.74089L9.37854 4.8595L5.2777 4.98616C5.14842 4.97917 5.01993 5.01037 4.90826 5.07589L3.5202 5.88339C3.40545 5.95137 3.31338 6.0518 3.25561 6.17202C3.19785 6.29224 3.17696 6.42687 3.19558 6.55895C3.21421 6.69102 3.27152 6.81462 3.36028 6.91418C3.44904 7.01374 3.56529 7.08479 3.69437 7.11839Z" fill="black"/>
</svg>
