<svg width="20" height="20" viewBox="0 0 20 20" fill="none" xmlns="http://www.w3.org/2000/svg">
<path d="M13.9583 4.45833H14.75C15.5899 4.45833 16.3953 4.79196 16.9892 5.38583C17.583 5.97969 17.9167 6.78515 17.9167 7.625C17.9167 8.46485 17.583 9.27031 16.9892 9.86417C16.3953 10.458 15.5899 10.7917 14.75 10.7917H13.9583H2.875M2.875 6.04167C2.875 4.54858 2.875 3.80283 3.33892 3.33892C3.80283 2.875 4.54858 2.875 6.04167 2.875H10.7917C12.2848 2.875 13.0305 2.875 13.4944 3.33892C13.9583 3.80283 13.9583 4.54858 13.9583 6.04167V10C13.9583 12.2388 13.9583 13.359 13.2625 14.0541C12.5674 14.75 11.4472 14.75 9.20833 14.75H7.625C5.38617 14.75 4.26596 14.75 3.57087 14.0541C2.875 13.359 2.875 12.2388 2.875 10V6.04167Z" stroke="black" stroke-width="1.1875"/>
<path d="M17.9168 17.125H2.0835" stroke="black" stroke-width="1.1875" stroke-linecap="round"/>
</svg>
