<svg width="19" height="20" viewBox="0 0 19 20" fill="none" xmlns="http://www.w3.org/2000/svg">
<path d="M17.8125 8.8125H17.0109L14.9491 4.17383C14.8558 3.96396 14.7037 3.78565 14.5111 3.6605C14.3185 3.53536 14.0937 3.46875 13.8641 3.46875H5.13594C4.90626 3.46875 4.68151 3.53536 4.48892 3.6605C4.29633 3.78565 4.14417 3.96396 4.05086 4.17383L1.98906 8.8125H1.1875C1.03003 8.8125 0.879005 8.87506 0.767655 8.98641C0.656306 9.09776 0.59375 9.24878 0.59375 9.40625C0.59375 9.56372 0.656306 9.71474 0.767655 9.82609C0.879005 9.93744 1.03003 10 1.1875 10H1.78125V15.9375C1.78125 16.2524 1.90636 16.5545 2.12906 16.7772C2.35176 16.9999 2.65381 17.125 2.96875 17.125H4.75C5.06494 17.125 5.36699 16.9999 5.58969 16.7772C5.81239 16.5545 5.9375 16.2524 5.9375 15.9375V14.75H13.0625V15.9375C13.0625 16.2524 13.1876 16.5545 13.4103 16.7772C13.633 16.9999 13.9351 17.125 14.25 17.125H16.0312C16.3462 17.125 16.6482 16.9999 16.8709 16.7772C17.0936 16.5545 17.2188 16.2524 17.2188 15.9375V10H17.8125C17.97 10 18.121 9.93744 18.2323 9.82609C18.3437 9.71474 18.4062 9.56372 18.4062 9.40625C18.4062 9.24878 18.3437 9.09776 18.2323 8.98641C18.121 8.87506 17.97 8.8125 17.8125 8.8125ZM5.13594 4.65625H13.8641L15.7114 8.8125H3.28863L5.13594 4.65625ZM4.75 15.9375H2.96875V14.75H4.75V15.9375ZM14.25 15.9375V14.75H16.0312V15.9375H14.25ZM16.0312 13.5625H2.96875V10H16.0312V13.5625ZM4.15625 11.7812C4.15625 11.6238 4.21881 11.4728 4.33016 11.3614C4.44151 11.2501 4.59253 11.1875 4.75 11.1875H5.9375C6.09497 11.1875 6.24599 11.2501 6.35734 11.3614C6.46869 11.4728 6.53125 11.6238 6.53125 11.7812C6.53125 11.9387 6.46869 12.0897 6.35734 12.2011C6.24599 12.3124 6.09497 12.375 5.9375 12.375H4.75C4.59253 12.375 4.44151 12.3124 4.33016 12.2011C4.21881 12.0897 4.15625 11.9387 4.15625 11.7812ZM12.4688 11.7812C12.4688 11.6238 12.5313 11.4728 12.6427 11.3614C12.754 11.2501 12.905 11.1875 13.0625 11.1875H14.25C14.4075 11.1875 14.5585 11.2501 14.6698 11.3614C14.7812 11.4728 14.8438 11.6238 14.8438 11.7812C14.8438 11.9387 14.7812 12.0897 14.6698 12.2011C14.5585 12.3124 14.4075 12.375 14.25 12.375H13.0625C12.905 12.375 12.754 12.3124 12.6427 12.2011C12.5313 12.0897 12.4688 11.9387 12.4688 11.7812Z" fill="black"/>
</svg>
