<svg width="20" height="20" viewBox="0 0 20 20" fill="none" xmlns="http://www.w3.org/2000/svg">
<path d="M10.0002 17.9166V11.5833M10.0002 11.5833V8.41659M10.0002 11.5833L13.1668 9.99992M13.9585 6.04159C13.9585 4.99177 13.5415 3.98495 12.7991 3.24262C12.0568 2.50029 11.05 2.08325 10.0002 2.08325C8.95035 2.08325 7.94353 2.50029 7.2012 3.24262C6.45887 3.98495 6.04183 4.99177 6.04183 6.04159M7.62516 6.04159H6.43766C5.28287 6.04159 4.17537 6.50033 3.3588 7.31689C2.54224 8.13346 2.0835 9.24096 2.0835 10.3958C2.0835 11.5505 2.54224 12.658 3.3588 13.4746C4.17537 14.2912 5.28287 14.7499 6.43766 14.7499H10.0002H13.5627C14.6843 14.7517 15.7634 14.3205 16.575 13.5462C17.3866 12.772 17.8681 11.7144 17.9192 10.5939C17.9702 9.47335 17.5868 8.37636 16.849 7.53153C16.1111 6.6867 15.0757 6.15921 13.9585 6.059" stroke="black" stroke-width="1.1875" stroke-linecap="round" stroke-linejoin="round"/>
</svg>
