<svg width="20" height="20" viewBox="0 0 20 20" fill="none" xmlns="http://www.w3.org/2000/svg">
<path d="M14.1562 2.875H5.84375C5.21386 2.875 4.60977 3.12522 4.16437 3.57062C3.71897 4.01602 3.46875 4.62011 3.46875 5.25V15.9375C3.46875 16.2524 3.59386 16.5545 3.81656 16.7772C4.03926 16.9999 4.34131 17.125 4.65625 17.125H6.4375C6.75244 17.125 7.05449 16.9999 7.27719 16.7772C7.49989 16.5545 7.625 16.2524 7.625 15.9375V14.75H12.375V15.9375C12.375 16.2524 12.5001 16.5545 12.7228 16.7772C12.9455 16.9999 13.2476 17.125 13.5625 17.125H15.3438C15.6587 17.125 15.9607 16.9999 16.1834 16.7772C16.4061 16.5545 16.5312 16.2524 16.5312 15.9375V5.25C16.5312 4.62011 16.281 4.01602 15.8356 3.57062C15.3902 3.12522 14.7861 2.875 14.1562 2.875ZM4.65625 13.5625V9.40625H15.3438V13.5625H4.65625ZM4.65625 6.4375H15.3438V8.21875H4.65625V6.4375ZM5.84375 4.0625H14.1562C14.4712 4.0625 14.7732 4.18761 14.9959 4.41031C15.2186 4.63301 15.3438 4.93506 15.3438 5.25H4.65625C4.65625 4.93506 4.78136 4.63301 5.00406 4.41031C5.22676 4.18761 5.52881 4.0625 5.84375 4.0625ZM6.4375 15.9375H4.65625V14.75H6.4375V15.9375ZM13.5625 15.9375V14.75H15.3438V15.9375H13.5625ZM8.21875 11.4844C8.21875 11.6605 8.16652 11.8327 8.06865 11.9792C7.97079 12.1256 7.83169 12.2398 7.66895 12.3072C7.50621 12.3746 7.32714 12.3923 7.15437 12.3579C6.98161 12.3235 6.82291 12.2387 6.69836 12.1141C6.5738 11.9896 6.48898 11.8309 6.45461 11.6581C6.42025 11.4854 6.43789 11.3063 6.50529 11.1435C6.5727 10.9808 6.68686 10.8417 6.83332 10.7438C6.97978 10.646 7.15198 10.5938 7.32812 10.5938C7.56433 10.5938 7.79087 10.6876 7.95789 10.8546C8.12492 11.0216 8.21875 11.2482 8.21875 11.4844ZM13.5625 11.4844C13.5625 11.6605 13.5103 11.8327 13.4124 11.9792C13.3145 12.1256 13.1754 12.2398 13.0127 12.3072C12.85 12.3746 12.6709 12.3923 12.4981 12.3579C12.3254 12.3235 12.1667 12.2387 12.0421 12.1141C11.9176 11.9896 11.8327 11.8309 11.7984 11.6581C11.764 11.4854 11.7816 11.3063 11.849 11.1435C11.9165 10.9808 12.0306 10.8417 12.1771 10.7438C12.3235 10.646 12.4957 10.5938 12.6719 10.5938C12.9081 10.5938 13.1346 10.6876 13.3016 10.8546C13.4687 11.0216 13.5625 11.2482 13.5625 11.4844ZM18.9062 6.4375V8.21875C18.9062 8.37622 18.8437 8.52724 18.7323 8.63859C18.621 8.74994 18.47 8.8125 18.3125 8.8125C18.155 8.8125 18.004 8.74994 17.8927 8.63859C17.7813 8.52724 17.7188 8.37622 17.7188 8.21875V6.4375C17.7188 6.28003 17.7813 6.12901 17.8927 6.01766C18.004 5.90631 18.155 5.84375 18.3125 5.84375C18.47 5.84375 18.621 5.90631 18.7323 6.01766C18.8437 6.12901 18.9062 6.28003 18.9062 6.4375ZM2.28125 6.4375V8.21875C2.28125 8.37622 2.21869 8.52724 2.10734 8.63859C1.99599 8.74994 1.84497 8.8125 1.6875 8.8125C1.53003 8.8125 1.37901 8.74994 1.26766 8.63859C1.15631 8.52724 1.09375 8.37622 1.09375 8.21875V6.4375C1.09375 6.28003 1.15631 6.12901 1.26766 6.01766C1.37901 5.90631 1.53003 5.84375 1.6875 5.84375C1.84497 5.84375 1.99599 5.90631 2.10734 6.01766C2.21869 6.12901 2.28125 6.28003 2.28125 6.4375Z" fill="black"/>
</svg>
