<svg width="216" height="38" viewBox="0 0 216 38" fill="none" xmlns="http://www.w3.org/2000/svg">
<path d="M18.3 19.05C19.5667 19.25 20.7167 19.7667 21.75 20.6C22.8167 21.4333 23.65 22.4667 24.25 23.7C24.8833 24.9333 25.2 26.25 25.2 27.65C25.2 29.4167 24.75 31.0167 23.85 32.45C22.95 33.85 21.6333 34.9667 19.9 35.8C18.2 36.6 16.1833 37 13.85 37H0.85V2.15H13.35C15.7167 2.15 17.7333 2.55 19.4 3.35C21.0667 4.11666 22.3167 5.16667 23.15 6.5C23.9833 7.83333 24.4 9.33333 24.4 11C24.4 13.0667 23.8333 14.7833 22.7 16.15C21.6 17.4833 20.1333 18.45 18.3 19.05ZM5.4 17.2H13.05C15.1833 17.2 16.8333 16.7 18 15.7C19.1667 14.7 19.75 13.3167 19.75 11.55C19.75 9.78333 19.1667 8.4 18 7.4C16.8333 6.4 15.15 5.9 12.95 5.9H5.4V17.2ZM13.45 33.25C15.7167 33.25 17.4833 32.7167 18.75 31.65C20.0167 30.5833 20.65 29.1 20.65 27.2C20.65 25.2667 19.9833 23.75 18.65 22.65C17.3167 21.5167 15.5333 20.95 13.3 20.95H5.4V33.25H13.45ZM56.5141 22.25C56.5141 23.1167 56.4641 24.0333 56.3641 25H34.4641C34.6307 27.7 35.5474 29.8167 37.2141 31.35C38.9141 32.85 40.9641 33.6 43.3641 33.6C45.3307 33.6 46.9641 33.15 48.2641 32.25C49.5974 31.3167 50.5307 30.0833 51.0641 28.55H55.9641C55.2307 31.1833 53.7641 33.3333 51.5641 35C49.3641 36.6333 46.6307 37.45 43.3641 37.45C40.7641 37.45 38.4307 36.8667 36.3641 35.7C34.3307 34.5333 32.7307 32.8833 31.5641 30.75C30.3974 28.5833 29.8141 26.0833 29.8141 23.25C29.8141 20.4167 30.3807 17.9333 31.5141 15.8C32.6474 13.6667 34.2307 12.0333 36.2641 10.9C38.3307 9.73333 40.6974 9.15 43.3641 9.15C45.9641 9.15 48.2641 9.71667 50.2641 10.85C52.2641 11.9833 53.7974 13.55 54.8641 15.55C55.9641 17.5167 56.5141 19.75 56.5141 22.25ZM51.8141 21.3C51.8141 19.5667 51.4307 18.0833 50.6641 16.85C49.8974 15.5833 48.8474 14.6333 47.5141 14C46.2141 13.3333 44.7641 13 43.1641 13C40.8641 13 38.8974 13.7333 37.2641 15.2C35.6641 16.6667 34.7474 18.7 34.5141 21.3H51.8141ZM67.0699 -4.76837e-07V37H62.5199V-4.76837e-07H67.0699ZM85.8746 37.35C83.5746 37.35 81.5079 36.95 79.6746 36.15C77.8746 35.3167 76.4579 34.1833 75.4246 32.75C74.3913 31.2833 73.8579 29.6 73.8246 27.7H78.6746C78.8413 29.3333 79.5079 30.7167 80.6746 31.85C81.8746 32.95 83.6079 33.5 85.8746 33.5C88.0413 33.5 89.7413 32.9667 90.9746 31.9C92.2413 30.8 92.8746 29.4 92.8746 27.7C92.8746 26.3667 92.5079 25.2833 91.7746 24.45C91.0413 23.6167 90.1246 22.9833 89.0246 22.55C87.9246 22.1167 86.4413 21.65 84.5746 21.15C82.2746 20.55 80.4246 19.95 79.0246 19.35C77.6579 18.75 76.4746 17.8167 75.4746 16.55C74.5079 15.25 74.0246 13.5167 74.0246 11.35C74.0246 9.45 74.5079 7.76666 75.4746 6.3C76.4413 4.83333 77.7913 3.7 79.5246 2.9C81.2913 2.1 83.3079 1.7 85.5746 1.7C88.8413 1.7 91.5079 2.51667 93.5746 4.15C95.6746 5.78333 96.8579 7.95 97.1246 10.65H92.1246C91.9579 9.31667 91.2579 8.15 90.0246 7.15C88.7913 6.11667 87.1579 5.6 85.1246 5.6C83.2246 5.6 81.6746 6.1 80.4746 7.1C79.2746 8.06667 78.6746 9.43333 78.6746 11.2C78.6746 12.4667 79.0246 13.5 79.7246 14.3C80.4579 15.1 81.3413 15.7167 82.3746 16.15C83.4413 16.55 84.9246 17.0167 86.8246 17.55C89.1246 18.1833 90.9746 18.8167 92.3746 19.45C93.7746 20.05 94.9746 21 95.9746 22.3C96.9746 23.5667 97.4746 25.3 97.4746 27.5C97.4746 29.2 97.0246 30.8 96.1246 32.3C95.2246 33.8 93.8913 35.0167 92.1246 35.95C90.3579 36.8833 88.2746 37.35 85.8746 37.35ZM109.72 13.35V29.5C109.72 30.8333 110.004 31.7833 110.57 32.35C111.137 32.8833 112.12 33.15 113.52 33.15H116.87V37H112.77C110.237 37 108.337 36.4167 107.07 35.25C105.804 34.0833 105.17 32.1667 105.17 29.5V13.35H101.62V9.6H105.17V2.7H109.72V9.6H116.87V13.35H109.72ZM126.933 14.05C127.733 12.4833 128.867 11.2667 130.333 10.4C131.833 9.53333 133.65 9.1 135.783 9.1V13.8H134.583C129.483 13.8 126.933 16.5667 126.933 22.1V37H122.383V9.6H126.933V14.05ZM166.036 22.25C166.036 23.1167 165.986 24.0333 165.886 25H143.986C144.152 27.7 145.069 29.8167 146.736 31.35C148.436 32.85 150.486 33.6 152.886 33.6C154.852 33.6 156.486 33.15 157.786 32.25C159.119 31.3167 160.052 30.0833 160.586 28.55H165.486C164.752 31.1833 163.286 33.3333 161.086 35C158.886 36.6333 156.152 37.45 152.886 37.45C150.286 37.45 147.952 36.8667 145.886 35.7C143.852 34.5333 142.252 32.8833 141.086 30.75C139.919 28.5833 139.336 26.0833 139.336 23.25C139.336 20.4167 139.902 17.9333 141.036 15.8C142.169 13.6667 143.752 12.0333 145.786 10.9C147.852 9.73333 150.219 9.15 152.886 9.15C155.486 9.15 157.786 9.71667 159.786 10.85C161.786 11.9833 163.319 13.55 164.386 15.55C165.486 17.5167 166.036 19.75 166.036 22.25ZM161.336 21.3C161.336 19.5667 160.952 18.0833 160.186 16.85C159.419 15.5833 158.369 14.6333 157.036 14C155.736 13.3333 154.286 13 152.686 13C150.386 13 148.419 13.7333 146.786 15.2C145.186 16.6667 144.269 18.7 144.036 21.3H161.336ZM197.041 22.25C197.041 23.1167 196.991 24.0333 196.891 25H174.991C175.158 27.7 176.075 29.8167 177.741 31.35C179.441 32.85 181.491 33.6 183.891 33.6C185.858 33.6 187.491 33.15 188.791 32.25C190.125 31.3167 191.058 30.0833 191.591 28.55H196.491C195.758 31.1833 194.291 33.3333 192.091 35C189.891 36.6333 187.158 37.45 183.891 37.45C181.291 37.45 178.958 36.8667 176.891 35.7C174.858 34.5333 173.258 32.8833 172.091 30.75C170.925 28.5833 170.341 26.0833 170.341 23.25C170.341 20.4167 170.908 17.9333 172.041 15.8C173.175 13.6667 174.758 12.0333 176.791 10.9C178.858 9.73333 181.225 9.15 183.891 9.15C186.491 9.15 188.791 9.71667 190.791 10.85C192.791 11.9833 194.325 13.55 195.391 15.55C196.491 17.5167 197.041 19.75 197.041 22.25ZM192.341 21.3C192.341 19.5667 191.958 18.0833 191.191 16.85C190.425 15.5833 189.375 14.6333 188.041 14C186.741 13.3333 185.291 13 183.691 13C181.391 13 179.425 13.7333 177.791 15.2C176.191 16.6667 175.275 18.7 175.041 21.3H192.341ZM208.597 13.35V29.5C208.597 30.8333 208.881 31.7833 209.447 32.35C210.014 32.8833 210.997 33.15 212.397 33.15H215.747V37H211.647C209.114 37 207.214 36.4167 205.947 35.25C204.681 34.0833 204.047 32.1667 204.047 29.5V13.35H200.497V9.6H204.047V2.7H208.597V9.6H215.747V13.35H208.597Z" fill="white"/>
</svg>
