<svg width="60" height="60" viewBox="0 0 60 60" fill="none" xmlns="http://www.w3.org/2000/svg">
<path d="M57.8544 44.7725L50.7817 37.6998C50.4817 37.3998 49.9544 37.3998 49.6544 37.6998L49.2908 38.0725L48.0272 36.8089C51.1635 32.027 50.6363 25.527 46.4363 21.327C41.6272 16.518 33.809 16.527 29.009 21.327C26.6817 23.6543 25.3999 26.7543 25.3999 30.0452C25.3999 33.3361 26.6817 36.4361 29.009 38.7634C31.409 41.1634 34.5726 42.3634 37.7272 42.3634C40.0817 42.3634 42.4454 41.6907 44.4908 40.3452L45.7635 41.6179L45.3999 41.9816C45.0908 42.2907 45.0908 42.7998 45.3999 43.1089L52.4726 50.1816C53.1908 50.8998 54.1544 51.2998 55.1726 51.2998C56.1908 51.2998 57.1544 50.8998 57.8726 50.1816C58.5908 49.4634 58.9908 48.4998 58.9908 47.4816C58.9726 46.4452 58.5817 45.4907 57.8544 44.7725ZM30.1363 37.627C28.109 35.5998 26.9908 32.9089 26.9908 30.0361C26.9908 27.1725 28.109 24.4725 30.1363 22.4452C32.2272 20.3543 34.9817 19.3089 37.7272 19.3089C40.4726 19.3089 43.2272 20.3543 45.3181 22.4452C49.4999 26.627 49.4999 33.4361 45.3181 37.627C41.1272 41.8089 34.3181 41.8089 30.1363 37.627ZM45.7635 39.3634C45.9908 39.1634 46.2272 38.9725 46.4454 38.7543C46.6635 38.5361 46.8635 38.3089 47.0544 38.0725L48.1726 39.1907L46.8817 40.4816L45.7635 39.3634ZM56.7272 49.0452C55.8817 49.8907 54.4181 49.8816 53.5726 49.0452L47.0635 42.5361L47.4272 42.1634L48.6363 40.9543L50.209 39.3816L56.7181 45.8907C57.1363 46.3089 57.3726 46.8725 57.3726 47.4634C57.3817 48.0634 57.1544 48.627 56.7272 49.0452Z" fill="#F29D10"/>
<path d="M37.7183 21.3452C35.4001 21.3452 33.2183 22.2452 31.5728 23.8907C29.9273 25.5361 29.0273 27.7179 29.0273 30.0361C29.0273 30.4725 29.3819 30.8361 29.8273 30.8361C30.2728 30.8361 30.6273 30.4816 30.6273 30.0361C30.6273 28.1452 31.3637 26.3634 32.7092 25.0179C34.0455 23.6725 35.8273 22.9361 37.7273 22.9361C38.1637 22.9361 38.5273 22.5816 38.5273 22.1361C38.5183 21.6998 38.1637 21.3452 37.7183 21.3452Z" fill="black"/>
<path d="M43.7092 43.1817C43.2728 43.1817 42.9092 43.5363 42.9092 43.9817V53.6363C42.9092 55.6999 41.2273 57.3908 39.1546 57.3908H6.36371C4.30007 57.3908 2.60916 55.709 2.60916 53.6363V6.36352C2.60916 4.29988 4.29098 2.60898 6.36371 2.60898H13.8273V5.56352H6.36371C5.92734 5.57261 5.5728 5.92716 5.5728 6.36352V53.6363C5.5728 54.0726 5.92734 54.4363 6.3728 54.4363H39.1728C39.6092 54.4363 39.9728 54.0817 39.9728 53.6363V45.1363C39.9728 44.6999 39.6183 44.3363 39.1728 44.3363C38.7273 44.3363 38.3728 44.6908 38.3728 45.1363V52.8453H7.16371V7.16352H13.8273V8.03625C13.8273 9.14534 14.7364 10.0544 15.8455 10.0544H29.691C30.8001 10.0544 31.7092 9.14534 31.7092 8.03625V7.16352H38.3728V14.9362C38.3728 15.3726 38.7273 15.7362 39.1728 15.7362C39.6183 15.7362 39.9728 15.3817 39.9728 14.9362V6.36352C39.9728 5.92716 39.6183 5.56352 39.1728 5.56352H31.7092V2.61807H39.1728C41.2364 2.61807 42.9273 4.29989 42.9273 6.37261V16.109C42.9273 16.5453 43.2819 16.909 43.7273 16.909C44.1728 16.909 44.5273 16.5544 44.5273 16.109V6.36352C44.5273 3.41807 42.1273 1.01807 39.1819 1.01807H6.36371C3.41825 1.02716 1.02734 3.41807 1.02734 6.36352V53.6363C1.02734 56.5817 3.42734 58.9817 6.3728 58.9817H39.1728C42.1183 58.9817 44.5183 56.5817 44.5183 53.6363V43.9726C44.5092 43.5362 44.1455 43.1817 43.7092 43.1817ZM30.1183 8.03625C30.1183 8.27261 29.9273 8.46352 29.691 8.46352H15.8455C15.6092 8.46352 15.4183 8.27261 15.4183 8.03625V2.61807H30.1183V8.03625Z" fill="black"/>
<path d="M18.9002 12.927C18.9002 12.4906 18.5457 12.127 18.1002 12.127H10.0002C9.56383 12.127 9.2002 12.4815 9.2002 12.927V21.027C9.2002 21.4633 9.55474 21.827 10.0002 21.827H18.1002C18.5366 21.827 18.9002 21.4724 18.9002 21.027V12.927ZM17.3093 20.236H10.8002V13.727H17.3093V20.236Z" fill="black"/>
<path d="M12.5908 18.8817C12.7453 19.0363 12.9453 19.1181 13.1544 19.1181C13.3635 19.1181 13.5635 19.0454 13.7181 18.8817L16.3999 16.1999C16.709 15.8908 16.709 15.3817 16.3999 15.0726C16.0908 14.7635 15.5817 14.7635 15.2726 15.0726L13.1544 17.1908L12.8181 16.8545C12.509 16.5454 11.9999 16.5454 11.6908 16.8545C11.3817 17.1635 11.3817 17.6726 11.6908 17.9817L12.5908 18.8817Z" fill="#F29D10"/>
<path d="M35.5366 15.1633C35.5366 14.7269 35.1821 14.3633 34.7366 14.3633H21.4548C21.0184 14.3633 20.6548 14.7178 20.6548 15.1633C20.6548 15.6087 21.0093 15.9633 21.4548 15.9633H34.7366C35.1821 15.9542 35.5366 15.5996 35.5366 15.1633Z" fill="black"/>
<path d="M27.791 19.2092C27.791 18.7728 27.4364 18.4092 26.991 18.4092H21.4455C21.0091 18.4092 20.6455 18.7637 20.6455 19.2092C20.6455 19.6546 21.0182 20.0001 21.4546 20.0001H27.0001C27.4364 20.0001 27.791 19.6455 27.791 19.2092Z" fill="black"/>
<path d="M18.9002 27.4001C18.9002 26.9637 18.5457 26.6001 18.1002 26.6001H10.0002C9.56383 26.6001 9.2002 26.9546 9.2002 27.4001V35.5001C9.2002 35.9365 9.55474 36.3001 10.0002 36.3001H18.1002C18.5366 36.3001 18.9002 35.9456 18.9002 35.5001V27.4001ZM17.3093 34.7001H10.8002V28.191H17.3093V34.7001Z" fill="black"/>
<path d="M12.5908 33.3544C12.7363 33.4998 12.9453 33.5908 13.1544 33.5908C13.3635 33.5908 13.5726 33.5089 13.7181 33.3544L16.3999 30.6726C16.709 30.3635 16.709 29.8544 16.3999 29.5453C16.0908 29.2362 15.5817 29.2362 15.2726 29.5453L13.1544 31.6635L12.8181 31.3271C12.509 31.018 11.9999 31.018 11.6908 31.3271C11.3817 31.6362 11.3817 32.1453 11.6908 32.4544L12.5908 33.3544Z" fill="#F29D10"/>
<path d="M21.4548 30.4179H22.5548C22.9911 30.4179 23.3548 30.0633 23.3548 29.6179C23.3548 29.1724 23.0002 28.8179 22.5548 28.8179H21.4548C21.0184 28.8179 20.6548 29.1724 20.6548 29.6179C20.6548 30.0633 21.0184 30.4179 21.4548 30.4179Z" fill="black"/>
<path d="M22.9912 32.8818H21.4548C21.0184 32.8818 20.6548 33.2364 20.6548 33.6818C20.6548 34.1273 21.0093 34.4818 21.4548 34.4818H22.9912C23.4275 34.4818 23.7911 34.1273 23.7911 33.6818C23.7911 33.2364 23.4366 32.8818 22.9912 32.8818Z" fill="black"/>
<path d="M18.1002 41.0728H10.0002C9.56383 41.0728 9.2002 41.4273 9.2002 41.8728V49.9728C9.2002 50.4091 9.55474 50.7728 10.0002 50.7728H18.1002C18.5366 50.7728 18.9002 50.4182 18.9002 49.9728V41.8728C18.9002 41.4273 18.5457 41.0728 18.1002 41.0728ZM17.3093 49.1637H10.8002V42.6546H17.3093V49.1637Z" fill="black"/>
<path d="M32.0093 43.2998H21.4548C21.0184 43.2998 20.6548 43.6543 20.6548 44.0998C20.6548 44.5453 21.0093 44.8998 21.4548 44.8998H32.0093C32.4457 44.8998 32.8093 44.5453 32.8093 44.0998C32.8093 43.6543 32.4548 43.2998 32.0093 43.2998Z" fill="black"/>
<path d="M21.4548 47.3452C21.0184 47.3452 20.6548 47.6998 20.6548 48.1452C20.6548 48.5907 21.0093 48.9452 21.4548 48.9452H32.0457C32.4821 48.9452 32.8457 48.5907 32.8457 48.1452C32.8457 47.6998 32.4911 47.3452 32.0457 47.3452H21.4548Z" fill="black"/>
<path d="M12.1454 47.8181C12.2999 47.9726 12.4999 48.0544 12.709 48.0544C12.9181 48.0544 13.1181 47.9726 13.2727 47.8181L14.0545 47.0362L14.8363 47.8181C14.9908 47.9726 15.1999 48.0544 15.3999 48.0544C15.5999 48.0544 15.809 47.9817 15.9636 47.8181C16.2727 47.509 16.2727 46.9999 15.9636 46.6908L15.1818 45.909L15.9636 45.1272C16.2727 44.8181 16.2727 44.309 15.9636 43.9999C15.6545 43.6908 15.1454 43.6908 14.8363 43.9999L14.0545 44.7817L13.2727 43.9999C12.9636 43.6908 12.4545 43.6908 12.1454 43.9999C11.8363 44.309 11.8363 44.8181 12.1454 45.1272L12.9272 45.909L12.1454 46.6908C11.8363 47.009 11.8363 47.509 12.1454 47.8181Z" fill="#F29D10"/>
</svg>
